<?xml version="1.0" encoding="UTF-8"?>
<svg width="90px" height="90px" viewBox="0 0 90 90" version="1.1" xmlns="http://www.w3.org/2000/svg" xmlns:xlink="http://www.w3.org/1999/xlink">
    <!-- Generator: Sketch 49 (51002) - http://www.bohemiancoding.com/sketch -->
    <title>equal_opportunity</title>
    <desc>Created with Sketch.</desc>
    <defs></defs>
    <g id="Landing-Assets-" stroke="none" stroke-width="1" fill="none" fill-rule="evenodd">
        <g id="icons" transform="translate(-33.000000, -165.000000)">
            <rect id="Rectangle-2-Copy" x="33" y="165" width="90" height="90"></rect>
            <g id="Group" transform="translate(38.000000, 169.000000)" stroke="#7F91A7" stroke-linecap="round" stroke-width="3">
                <g id="Group-2" transform="translate(27.000000, 0.000000)">
                    <path d="M0,12.8334643 L13.3022935,0 L26.6070303,12.8346429 M13.3035151,30 L13.3035151,0" id="Imported-Layers-Copy"></path>
                    <path d="M0,62.8334643 L13.3022935,50 L26.6070303,62.8346429 M13.3035151,80 L13.3035151,50" id="Imported-Layers-Copy-3" transform="translate(13.303515, 65.000000) scale(1, -1) translate(-13.303515, -65.000000) "></path>
                </g>
                <g id="Group-2-Copy" transform="translate(40.500000, 40.000000) rotate(90.000000) translate(-40.500000, -40.000000) translate(27.000000, 0.000000)">
                    <path d="M0,12.8334643 L13.3022935,0 L26.6070303,12.8346429 M13.3035151,30 L13.3035151,0" id="Imported-Layers-Copy"></path>
                    <path d="M0,62.8334643 L13.3022935,50 L26.6070303,62.8346429 M13.3035151,80 L13.3035151,50" id="Imported-Layers-Copy-3" transform="translate(13.303515, 65.000000) scale(1, -1) translate(-13.303515, -65.000000) "></path>
                </g>
            </g>
        </g>
    </g>
</svg>