<?xml version="1.0" encoding="UTF-8" standalone="no"?>
<!-- Created with Inkscape (http://www.inkscape.org/) -->

<svg
   xmlns:dc="http://purl.org/dc/elements/1.1/"
   xmlns:cc="http://creativecommons.org/ns#"
   xmlns:rdf="http://www.w3.org/1999/02/22-rdf-syntax-ns#"
   xmlns:svg="http://www.w3.org/2000/svg"
   xmlns="http://www.w3.org/2000/svg"
   xmlns:sodipodi="http://sodipodi.sourceforge.net/DTD/sodipodi-0.dtd"
   xmlns:inkscape="http://www.inkscape.org/namespaces/inkscape"
   width="210mm"
   height="297mm"
   viewBox="0 0 210 297"
   version="1.1"
   id="svg8"
   inkscape:version="0.92.3 (2405546, 2018-03-11)"
   sodipodi:docname="eos_white.svg"
   inkscape:export-filename="/home/eric/OneDrive/Pictures/bostrot/eos.png"
   inkscape:export-xdpi="17.155342"
   inkscape:export-ydpi="17.155342">
  <defs
     id="defs2" />
  <sodipodi:namedview
     id="base"
     pagecolor="#ffffff"
     bordercolor="#666666"
     borderopacity="1.0"
     inkscape:pageopacity="0.0"
     inkscape:pageshadow="2"
     inkscape:zoom="0.70710678"
     inkscape:cx="329.05595"
     inkscape:cy="461.0363"
     inkscape:document-units="mm"
     inkscape:current-layer="layer1"
     showgrid="false"
     inkscape:measure-start="403.578,953.562"
     inkscape:measure-end="407.906,954.719"
     inkscape:snap-global="false"
     inkscape:window-width="1920"
     inkscape:window-height="968"
     inkscape:window-x="1072"
     inkscape:window-y="717"
     inkscape:window-maximized="0">
    <sodipodi:guide
       position="0,0"
       orientation="0,793.70079"
       id="guide3793"
       inkscape:locked="false" />
    <sodipodi:guide
       position="210,0"
       orientation="-1122.5197,0"
       id="guide3795"
       inkscape:locked="false" />
    <sodipodi:guide
       position="210,297"
       orientation="0,-793.70079"
       id="guide3797"
       inkscape:locked="false" />
    <sodipodi:guide
       position="108.48227,36.353337"
       orientation="1122.5197,0"
       id="guide3799"
       inkscape:locked="false" />
  </sodipodi:namedview>
  <metadata
     id="metadata5">
    <rdf:RDF>
      <cc:Work
         rdf:about="">
        <dc:format>image/svg+xml</dc:format>
        <dc:type
           rdf:resource="http://purl.org/dc/dcmitype/StillImage" />
        <dc:title></dc:title>
      </cc:Work>
    </rdf:RDF>
  </metadata>
  <g
     inkscape:label="Ebene 1"
     inkscape:groupmode="layer"
     id="layer1">
    <path
       style="stroke-width:0;stroke:none;stroke-opacity:1;fill:#ffffff;fill-opacity:0.97453308;stroke-miterlimit:4;stroke-dasharray:none;stroke-dashoffset:0"
       d="m 405.36303,1118.5882 c -0.73893,-0.6983 -3.58174,-2.4484 -6.31738,-3.8891 -2.73562,-1.4408 -85.30723,-50.6459 -183.49245,-109.3449 C 83.189899,926.22235 37.203089,898.0681 37.686308,896.45979 38.044754,895.26677 62.583458,771.89218 92.216763,622.29403 L 146.0955,350.29739 256.00375,204.39392 c 60.44954,-80.2469 115.40858,-153.317645 122.13121,-162.379424 6.72262,-9.061777 13.50198,-17.971322 15.06524,-19.798989 1.56324,-1.827666 5.60678,-6.908084 8.98564,-11.289816 l 6.14337,-7.9667848 55.27002,73.7277158 C 493.99773,117.23686 552.8661,195.59846 594.41781,250.8235 l 75.54856,100.40916 54.15352,273.48242 c 29.78443,150.41533 53.63248,273.95037 52.99566,274.52232 -0.63682,0.57195 -74.97981,45.10517 -165.20663,98.96269 -90.22683,53.85751 -168.82174,100.92301 -174.65538,104.58981 -10.37636,6.5224 -28.9114,17.0678 -29.99897,17.0678 -0.30143,0 -1.15261,-0.5713 -1.89154,-1.2695 z M 663.17416,916.48802 c 37.51197,-22.4066 65.40738,-39.9307 65.40738,-41.08939 0,-3.59174 -80.9374,-410.99494 -81.85556,-412.02481 -0.68114,-0.76403 -195.88807,570.86648 -197.90176,579.52198 -0.24759,1.0642 33.1632,-18.1517 74.24621,-42.7019 41.08299,-24.55026 104.12967,-62.21788 140.10373,-83.70588 z M 367.44603,1042.3932 C 367.07313,1041.7898 322.72148,911.48775 268.88678,752.83297 215.0521,594.1782 170.59102,463.90249 170.0844,463.3314 c -0.63376,-0.71442 -79.902929,394.57935 -82.67427,412.27407 -0.17605,1.12405 277.44535,167.81433 279.56976,167.86003 0.62927,0.014 0.83902,-0.4689 0.46614,-1.0723 z M 519.28014,698.61765 C 609.00214,434.37405 629.63206,372.26578 628.49602,369.813 627.11306,366.8271 409.75403,77.73371 408.46641,77.167658 407.09813,76.566155 186.93775,370.23073 186.93775,372.65733 c 0,1.88818 214.68483,636.24357 219.99101,650.03417 0.53665,1.3948 1.14653,2.3494 1.35531,2.1214 0.20877,-0.228 50.15701,-147.01588 110.99607,-326.19525 z"
       id="path4101"
       inkscape:connector-curvature="0"
       transform="scale(0.26458333)" />
  </g>
</svg>
